<?xml version="1.0" standalone="no"?>
<!DOCTYPE svg PUBLIC "-//W3C//DTD SVG 20010904//EN"
 "http://www.w3.org/TR/2001/REC-SVG-20010904/DTD/svg10.dtd">
<svg version="1.0" xmlns="http://www.w3.org/2000/svg"
 width="980.000000pt" height="980.000000pt" viewBox="0 0 980.000000 980.000000"
 preserveAspectRatio="xMidYMid meet">

<g transform="translate(0.000000,980.000000) scale(0.100000,-0.100000)"
fill="#000000" stroke="none">
<path d="M0 9160 l0 -639 28 4 c84 15 208 35 213 35 3 0 -23 118 -58 263 -34
144 -63 270 -63 280 0 30 27 18 34 -15 3 -18 32 -142 63 -275 49 -207 61 -243
76 -243 10 0 139 20 287 45 300 50 300 50 300 32 0 -10 -78 -27 -292 -62 -161
-27 -295 -50 -297 -51 -6 -5 98 -411 151 -586 18 -60 22 -67 41 -63 31 7 539
75 560 75 9 0 17 -6 17 -14 0 -10 -60 -21 -237 -45 -246 -33 -344 -48 -350
-54 -2 -2 31 -118 72 -258 86 -292 84 -281 68 -286 -13 -5 -49 102 -129 382
-38 132 -51 164 -63 161 -9 -3 -107 -17 -218 -32 l-203 -27 0 -1142 0 -1141
28 -27 c15 -15 31 -27 34 -27 3 0 29 31 59 70 50 64 79 86 79 59 0 -6 -25 -42
-55 -81 l-56 -71 23 -24 c13 -14 45 -41 71 -60 31 -23 45 -39 39 -45 -13 -13
-45 5 -104 60 l-48 45 -22 -29 c-13 -15 -28 -35 -35 -43 -7 -9 -13 -47 -13
-88 l0 -73 173 0 c158 0 213 -8 194 -26 -10 -11 -35 -12 -209 -13 l-158 -1 0
-336 0 -336 37 6 c84 12 314 29 320 22 16 -15 -20 -25 -137 -35 -69 -6 -146
-14 -172 -17 l-48 -6 0 -873 0 -873 67 -26 c354 -134 327 -126 339 -102 6 11
53 135 104 274 63 168 99 252 108 252 20 0 17 -11 -92 -299 -53 -140 -93 -257
-89 -261 9 -8 575 -215 615 -225 25 -6 27 -4 41 47 8 29 36 127 61 218 72 261
75 270 93 270 10 0 14 -6 10 -17 -40 -140 -147 -528 -147 -533 0 -7 148 -62
430 -161 85 -29 135 -52 135 -60 0 -20 -9 -17 -303 86 -146 52 -269 91 -273
87 -9 -10 -164 -640 -158 -645 2 -2 128 -52 279 -109 251 -97 315 -128 262
-128 -17 0 -514 188 -541 204 -13 8 -12 12 -76 -283 -30 -140 -59 -259 -65
-265 -25 -25 -16 42 39 290 32 148 58 270 57 271 -1 1 -159 63 -351 137 -211
82 -352 131 -356 125 -3 -6 -41 -121 -84 -257 -43 -136 -84 -252 -91 -258 -12
-9 -14 -122 -14 -663 l0 -651 964 0 964 0 97 121 c53 67 93 125 89 129 -5 5
-97 58 -204 119 -283 160 -284 161 -272 173 8 8 63 -19 194 -92 101 -57 212
-121 247 -142 35 -22 67 -36 71 -31 3 4 49 62 100 128 52 66 154 196 228 288
113 141 132 171 121 182 -8 7 -108 79 -224 160 -186 130 -239 175 -207 175 10
0 411 -278 445 -308 17 -15 20 -15 30 -1 7 9 93 118 191 242 156 198 206 251
206 219 0 -5 -85 -116 -189 -248 -104 -131 -188 -241 -186 -245 2 -3 98 -74
212 -158 114 -84 231 -170 260 -191 l51 -39 69 88 c37 49 115 150 173 224 95
123 130 157 130 126 0 -6 -77 -109 -170 -229 -94 -120 -170 -222 -170 -227 0
-5 15 -20 33 -33 150 -109 417 -325 417 -337 0 -9 -6 -13 -14 -10 -8 3 -97 70
-198 149 -228 178 -255 198 -265 198 -4 -1 -81 -96 -170 -213 l-161 -212 1219
-3 1220 -2 26 30 c34 41 73 60 125 60 50 0 103 -29 120 -65 10 -23 17 -25 73
-25 l62 0 -18 87 c-22 107 -23 123 -5 123 9 0 19 -29 30 -87 10 -49 19 -96 22
-105 5 -17 33 -18 400 -18 l394 0 0 23 c0 12 -5 62 -10 111 -11 94 -8 128 11
109 6 -6 16 -63 21 -127 l11 -116 1618 0 1619 0 0 958 0 957 -103 39 c-271
103 -307 119 -307 132 0 8 4 14 9 14 5 0 96 -34 202 -75 106 -41 194 -75 196
-75 2 0 3 157 3 349 l0 350 -75 28 c-44 16 -75 33 -75 41 0 17 24 13 98 -16
l52 -22 0 876 0 876 -47 -6 c-27 -3 -75 -9 -107 -12 l-59 -7 7 -303 c6 -258 5
-304 -7 -304 -16 0 -26 173 -28 454 l-1 149 -71 -7 c-92 -8 -555 -65 -584 -71
l-23 -5 0 -300 c0 -260 -2 -300 -15 -300 -13 0 -15 40 -15 300 l0 300 -22 -4
c-81 -18 -529 -78 -535 -73 -16 17 26 27 252 61 132 20 255 38 273 41 l32 6 0
380 0 379 -82 -5 c-449 -29 -478 -29 -478 -11 0 15 42 19 369 36 101 5 185 11
187 13 1 1 6 141 10 310 5 216 10 307 18 304 8 -3 12 -99 14 -312 l2 -308 93
6 c50 4 197 10 325 13 l232 7 0 288 c0 250 2 289 15 289 13 0 15 -39 15 -290
l0 -290 115 0 115 0 0 78 -1 77 -22 -30 c-49 -66 -80 -96 -90 -86 -6 6 12 37
52 89 56 72 61 83 61 128 0 47 -3 52 -46 88 -31 26 -42 42 -35 49 7 7 21 2 46
-17 l35 -27 0 1142 c0 909 -3 1140 -12 1136 -7 -2 -77 -13 -155 -23 -112 -14
-143 -22 -143 -33 0 -9 23 -132 51 -275 31 -162 47 -262 41 -268 -6 -6 -12 -6
-15 -1 -5 8 -62 289 -98 478 -7 39 -13 71 -14 72 -1 2 -131 -15 -289 -37 -323
-45 -326 -45 -326 -26 0 9 25 17 83 24 238 32 521 72 524 75 2 2 -3 35 -11 73
-8 38 -33 182 -56 319 -23 138 -43 251 -44 252 0 1 -128 -17 -283 -40 -156
-22 -286 -38 -290 -34 -17 17 28 28 285 65 150 22 275 42 278 45 3 3 -6 81
-20 174 -51 338 -58 395 -48 405 6 6 12 6 16 0 5 -8 86 -543 86 -566 0 -11 48
-6 240 24 105 17 193 30 196 30 2 0 4 288 4 640 l0 640 -1618 0 -1618 0 14
-157 c8 -87 15 -159 16 -160 1 -1 135 3 298 9 280 11 343 8 322 -11 -5 -5
-144 -14 -309 -20 -165 -7 -301 -14 -303 -16 -3 -3 38 -648 42 -651 0 0 71 3
156 7 440 21 420 21 420 6 0 -17 -60 -23 -310 -32 -85 -3 -180 -8 -210 -11
l-55 -5 6 -122 c21 -400 21 -467 6 -467 -12 0 -16 26 -22 148 -13 294 -22 433
-27 438 -6 5 -571 -22 -644 -32 -33 -4 -41 -9 -38 -22 17 -75 71 -539 64 -546
-5 -5 -12 -7 -15 -4 -4 3 -22 120 -40 259 -43 318 -41 309 -68 309 -12 0 -146
-9 -297 -20 -254 -17 -310 -16 -287 6 6 6 489 43 573 44 l31 0 -9 63 c-14 97
-98 601 -101 603 -1 1 -136 -3 -299 -9 -164 -6 -301 -7 -305 -4 -19 19 35 25
301 36 159 6 291 13 293 15 2 2 -10 77 -26 166 -17 90 -31 167 -31 171 0 5
-28 9 -63 9 l-63 0 -2 -66 c-4 -134 -69 -211 -155 -182 -89 30 -143 108 -134
195 l6 53 -1222 -1 -1222 0 -33 -46 c-19 -25 -36 -51 -38 -57 -3 -7 30 -34 73
-61 213 -134 393 -256 393 -265 0 -19 -25 -10 -95 36 -131 87 -394 254 -399
254 -2 0 -82 -105 -177 -232 -204 -276 -186 -255 -200 -241 -8 8 38 77 170
252 177 236 180 241 158 255 -12 7 -56 34 -98 60 l-76 46 -155 0 -156 0 24
-86 c13 -48 25 -88 27 -91 2 -2 35 1 73 7 99 14 167 13 162 -2 -3 -8 -44 -17
-112 -25 -60 -6 -110 -13 -112 -15 -2 -2 8 -44 21 -92 13 -49 22 -93 19 -97
-13 -21 -24 -3 -44 75 -12 46 -26 90 -31 97 -7 11 -29 10 -129 -6 -90 -16
-120 -18 -120 -8 0 18 6 19 120 38 58 10 108 20 113 24 4 4 3 20 -2 37 -5 16
-17 55 -26 87 l-16 57 -112 -1 -112 0 -93 -120 c-51 -65 -98 -119 -103 -119
-18 0 -9 30 19 62 15 18 54 66 85 106 l58 72 -966 0 -965 0 0 -640z m8124 212
c22 -15 48 -39 59 -54 26 -35 33 -113 14 -159 -46 -111 -211 -129 -265 -28 -8
16 -12 54 -10 111 2 69 7 92 24 115 45 60 106 65 178 15z m-2512 -212 c-34
-50 -62 -93 -62 -97 0 -3 36 -40 80 -80 69 -65 97 -103 74 -103 -4 0 -45 35
-92 77 l-85 78 -16 -25 c-59 -90 -103 -142 -113 -132 -7 7 6 35 46 91 31 44
56 83 56 85 0 3 -42 40 -92 82 -100 83 -105 89 -88 99 6 4 51 -27 100 -69 49
-42 93 -76 98 -76 4 0 36 41 71 91 46 66 66 88 74 80 8 -8 -6 -36 -51 -101z
m3530 -306 c-2 -10 -22 -48 -44 -82 -34 -52 -39 -65 -27 -73 8 -5 58 -35 112
-66 53 -31 97 -63 97 -71 0 -19 -11 -14 -137 59 -58 33 -109 56 -112 51 -77
-117 -95 -142 -102 -142 -19 0 -8 33 29 88 21 31 42 62 45 69 5 7 -23 28 -73
57 -44 26 -80 53 -80 61 0 22 7 19 90 -30 41 -25 80 -45 85 -45 10 0 78 100
91 133 8 23 30 16 26 -9z m-2385 -237 c32 -24 81 -59 108 -79 l50 -36 58 69
c32 38 62 69 67 69 12 0 13 -27 2 -34 -4 -3 -29 -31 -55 -64 l-46 -59 74 -53
c41 -29 75 -59 75 -67 0 -22 -13 -16 -93 42 l-76 54 -51 -60 c-27 -34 -50 -65
-50 -70 0 -5 -7 -9 -15 -9 -27 0 -16 27 35 91 28 34 50 65 50 68 -1 3 -48 39
-105 80 -104 74 -111 81 -98 94 9 10 8 11 70 -36z m-5967 -168 c0 -6 -20 -47
-45 -91 -25 -44 -45 -83 -45 -87 0 -3 45 -35 100 -71 91 -60 121 -90 87 -90
-8 0 -56 29 -108 65 -107 74 -93 78 -159 -44 -24 -45 -49 -81 -57 -81 -19 0
-18 4 37 106 28 51 50 96 50 101 0 4 -41 39 -90 76 -50 38 -90 73 -90 77 0 25
25 13 107 -50 98 -75 95 -75 128 -10 45 88 85 135 85 99z m1228 -25 c43 -18
88 -58 108 -96 22 -42 18 -119 -9 -159 -31 -47 -101 -82 -150 -74 -82 12 -117
61 -117 162 0 80 15 127 51 157 35 30 64 32 117 10z m1792 -17 c0 -8 -20 -45
-44 -83 -25 -38 -44 -69 -43 -70 1 -1 53 -32 115 -68 103 -62 132 -86 99 -86
-7 0 -44 18 -82 41 -39 22 -89 51 -111 64 l-42 25 -42 -65 c-48 -73 -65 -91
-75 -76 -3 6 12 38 35 71 22 33 43 66 46 74 3 9 -21 29 -75 60 -45 26 -81 51
-81 56 0 20 35 9 107 -35 86 -52 76 -56 135 47 31 54 58 75 58 45z m1529 -577
c36 -33 69 -60 74 -60 5 0 36 27 69 61 41 41 64 57 71 50 7 -7 -11 -32 -54
-77 l-64 -66 93 -88 c87 -82 111 -116 77 -108 -8 2 -54 43 -104 91 l-89 88
-65 -61 c-35 -33 -70 -60 -76 -60 -25 0 -8 27 52 81 l62 57 -67 69 c-38 38
-68 72 -68 76 0 19 31 1 89 -53z m-4493 -53 c87 -38 127 -92 127 -173 0 -84
-50 -143 -133 -159 -50 -9 -116 19 -136 57 -43 82 -21 232 39 268 37 23 63 25
103 7z m1844 -708 c0 -5 -42 -63 -93 -127 -51 -64 -134 -170 -186 -234 -51
-65 -91 -122 -89 -127 1 -5 66 -55 143 -111 77 -57 192 -142 257 -190 l116
-88 20 21 c10 12 89 113 176 225 136 175 186 227 186 194 0 -4 -22 -35 -48
-68 -105 -131 -293 -376 -297 -387 -2 -7 44 -48 102 -92 242 -182 355 -277
345 -287 -8 -8 -33 6 -84 46 -300 232 -384 296 -390 296 -3 0 -80 -96 -169
-212 -243 -318 -251 -329 -248 -333 2 -1 67 -43 144 -92 221 -141 314 -203
320 -213 4 -6 3 -14 0 -20 -3 -5 -44 16 -93 49 -203 136 -395 253 -401 244
-43 -65 -356 -473 -362 -473 -26 0 -1 40 161 256 136 182 176 242 167 250 -11
11 -496 307 -543 332 -20 10 -34 -5 -195 -209 -96 -121 -180 -228 -187 -237
-9 -12 -15 -13 -23 -5 -8 8 6 33 55 95 308 389 301 380 280 395 -18 13 -241
141 -396 227 -38 21 -68 44 -68 52 0 8 4 14 9 14 7 0 232 -126 492 -276 3 -2
62 67 130 153 68 86 172 218 232 292 59 75 107 139 107 143 0 8 -96 78 -298
218 -135 94 -175 130 -141 130 6 0 105 -66 220 -147 116 -82 218 -154 228
-161 19 -13 54 27 324 375 65 84 97 111 97 82z m5808 -74 l68 -64 68 65 c37
37 70 64 73 61 12 -13 -12 -50 -64 -97 l-57 -52 97 -90 c53 -49 97 -94 97
-100 0 -22 -34 1 -122 83 l-94 86 -64 -58 c-36 -32 -68 -59 -72 -59 -25 0 -9
26 49 80 l66 62 -66 60 c-61 54 -83 88 -57 88 5 0 40 -29 78 -65z m-2508 -122
c27 -121 109 -456 113 -459 1 -2 135 19 297 46 162 27 296 50 298 50 1 0 2 -7
2 -15 0 -18 11 -16 -314 -69 -147 -25 -270 -47 -272 -48 -4 -5 66 -282 126
-495 23 -84 47 -153 54 -153 6 0 139 18 295 40 157 22 286 40 288 40 2 0 3 -6
3 -14 0 -18 0 -18 -318 -62 -181 -24 -272 -41 -269 -48 4 -9 140 -468 154
-518 4 -12 0 -18 -10 -18 -17 0 -15 -6 -117 340 -32 107 -62 196 -68 198 -10
3 -733 -96 -739 -101 -2 -2 17 -109 43 -238 57 -295 61 -323 43 -317 -9 3 -31
91 -67 274 -29 148 -55 271 -58 273 -2 3 -138 -13 -302 -36 -266 -36 -332 -40
-309 -17 7 7 171 32 465 70 l144 19 -6 35 c-4 19 -28 162 -55 318 -27 155 -51
285 -54 289 -4 3 -131 -13 -284 -35 -252 -37 -314 -40 -290 -16 4 4 134 26
289 48 228 34 283 44 281 56 -1 8 -18 123 -37 255 -20 132 -38 257 -41 278 -4
28 -2 37 10 37 18 0 17 3 56 -265 17 -121 34 -240 38 -265 6 -42 9 -45 36 -43
32 2 648 95 653 98 2 2 -11 57 -28 124 -37 148 -100 419 -100 432 0 5 6 9 14
9 10 0 21 -30 36 -97z m434 88 c3 -5 -14 -45 -39 -90 -25 -45 -45 -85 -45 -89
0 -4 45 -36 100 -72 91 -60 121 -90 87 -90 -7 0 -56 29 -108 65 -108 74 -94
78 -161 -47 -23 -43 -48 -78 -55 -78 -21 0 -16 15 37 110 28 50 50 93 50 98 0
4 -41 38 -90 75 -50 38 -90 73 -90 77 0 24 23 13 105 -50 103 -79 92 -81 152
33 34 65 46 77 57 58z m-1254 -254 c0 -8 -17 -40 -38 -73 -21 -32 -41 -64 -45
-71 -4 -7 35 -35 108 -78 63 -37 115 -71 115 -76 0 -20 -35 -6 -132 51 -56 33
-107 60 -112 60 -6 0 -31 -30 -56 -67 -44 -64 -70 -87 -70 -63 0 7 21 44 46
82 25 38 45 71 43 73 -2 2 -37 23 -78 47 -71 42 -98 68 -69 68 7 0 47 -20 88
-45 l75 -44 27 31 c15 17 37 50 50 74 22 42 48 59 48 31z m-4792 -64 c55 -44
74 -77 80 -131 9 -97 -57 -172 -151 -172 -98 0 -137 45 -137 159 0 84 22 146
59 166 40 23 105 13 149 -22z m1413 6 c64 -44 119 -130 119 -182 0 -31 -33
-73 -72 -93 -48 -25 -141 -21 -182 7 -53 36 -80 83 -79 139 2 122 121 194 214
129z m5987 12 c100 -52 137 -145 92 -235 -27 -55 -63 -79 -125 -84 -102 -8
-147 41 -147 162 0 82 11 117 48 151 33 31 80 33 132 6z m-4535 -293 c3 -13 9
-46 13 -74 10 -80 10 -80 108 -55 101 25 96 25 96 6 0 -14 -26 -24 -127 -46
-61 -14 -61 -14 -38 -124 8 -38 15 -71 15 -72 0 -2 -6 -3 -13 -3 -15 0 -31 46
-42 120 -4 25 -9 48 -11 51 -2 4 -55 -6 -116 -22 -128 -32 -148 -34 -148 -16
0 9 43 23 123 42 67 15 125 31 129 34 3 3 0 40 -7 81 -8 41 -14 81 -14 88 -1
21 27 13 32 -10z m3367 -77 c0 -5 -20 -47 -45 -93 l-44 -84 99 -67 c55 -37
100 -75 100 -83 0 -19 -15 -11 -130 66 l-86 58 -54 -99 c-29 -54 -57 -99 -61
-99 -21 0 -16 24 17 82 20 34 44 79 54 99 l19 36 -95 72 c-82 63 -105 91 -75
91 5 0 46 -29 92 -65 46 -36 87 -65 91 -65 4 0 26 36 49 80 24 44 49 80 56 80
7 0 13 -4 13 -9z m-1445 -260 c59 -40 85 -84 85 -145 0 -68 -26 -115 -80 -143
-52 -28 -93 -29 -140 -5 -48 24 -70 71 -70 152 0 88 30 150 80 167 44 14 74 8
125 -26z m-3776 4 c44 -22 120 -112 131 -156 16 -57 -7 -104 -62 -129 -48 -22
-128 -26 -161 -9 -39 20 -86 72 -98 106 -38 116 88 241 190 188z m505 -395
l29 -111 61 8 c84 11 170 10 174 -2 1 -6 -44 -15 -104 -22 -58 -6 -108 -14
-112 -17 -3 -4 5 -47 18 -96 12 -50 20 -93 17 -96 -13 -14 -26 11 -47 88 -12
46 -26 87 -30 92 -5 5 -58 1 -124 -10 -64 -9 -118 -15 -122 -11 -16 15 14 26
121 43 63 10 115 22 115 26 0 5 -11 49 -25 98 -28 101 -30 120 -12 120 8 0 24
-43 41 -110z m4818 -39 c138 -88 102 -291 -54 -308 -56 -7 -113 18 -133 58
-19 36 -20 168 -1 213 30 72 108 87 188 37z m-2568 -185 c-1 -9 -21 -46 -45
-82 -35 -53 -40 -67 -28 -75 8 -5 58 -35 112 -66 53 -31 97 -63 97 -70 0 -7
-3 -13 -8 -13 -4 0 -59 30 -121 66 -63 36 -117 61 -120 56 -77 -117 -95 -141
-102 -136 -16 9 -10 28 27 79 61 86 63 78 -26 130 -44 26 -80 51 -80 55 0 22
22 16 91 -25 41 -25 79 -45 84 -45 10 0 78 100 91 133 8 22 30 16 28 -7z
m3122 -740 l71 -65 64 64 c35 35 68 60 72 56 14 -14 -8 -44 -65 -95 l-53 -47
98 -90 c53 -50 97 -95 97 -100 0 -25 -36 -1 -123 81 l-94 89 -19 -20 c-45 -50
-115 -102 -125 -92 -7 7 13 31 56 72 l67 62 -66 60 c-59 54 -81 89 -58 89 4 0
40 -29 78 -64z m-3698 -750 l2 -307 273 6 c149 3 296 8 324 11 l53 5 2 286 c2
218 6 287 16 291 9 3 12 -59 12 -287 l0 -291 298 -2 c192 -2 296 -7 295 -13
-2 -6 -112 -12 -294 -15 l-290 -5 2 -325 c1 -179 2 -333 2 -344 1 -21 -4 -21
362 13 182 18 234 16 212 -5 -3 -4 -95 -15 -204 -25 -109 -10 -234 -22 -278
-26 l-80 -8 0 -300 c0 -190 -4 -302 -10 -305 -12 -6 -22 159 -25 418 l-2 183
-56 -6 c-251 -30 -606 -76 -613 -81 -5 -3 -9 -137 -9 -305 0 -236 -3 -300 -12
-297 -10 4 -14 75 -16 301 -2 253 -4 297 -17 297 -14 0 -449 -65 -512 -76 -26
-5 -33 -3 -33 9 0 9 12 18 28 21 34 7 328 51 445 67 l87 12 0 379 0 378 -62
-1 c-35 0 -157 -6 -273 -13 -191 -12 -242 -9 -221 11 6 6 281 26 492 35 68 3
68 3 69 33 1 17 2 158 3 313 2 222 5 283 15 280 9 -4 13 -77 15 -312z m5797
236 c-33 -31 -70 -69 -83 -83 l-22 -26 75 -54 c68 -48 93 -79 64 -79 -5 0 -45
25 -87 57 l-76 56 -86 -92 c-47 -50 -88 -91 -92 -91 -21 0 -1 33 72 114 l79
89 -72 54 c-106 79 -111 83 -99 95 7 7 35 -9 89 -49 43 -33 84 -63 91 -67 9
-6 41 18 98 75 67 65 87 80 97 70 9 -10 -1 -25 -48 -69z m-687 -51 c81 -42 89
-119 19 -197 -40 -47 -77 -64 -134 -64 -61 0 -119 33 -144 80 -36 66 -17 157
39 193 39 25 161 19 220 -12z m-3998 -53 c0 -6 -25 -44 -56 -84 l-55 -73 42
-38 c23 -21 54 -46 70 -56 32 -21 36 -32 15 -40 -7 -3 -44 20 -81 51 -66 55
-68 55 -84 35 -9 -11 -45 -57 -80 -102 -35 -44 -67 -81 -72 -81 -25 0 -11 28
61 118 44 55 80 102 80 105 0 3 -29 34 -65 68 -42 40 -62 66 -56 72 6 6 34
-12 77 -51 l68 -60 59 74 c56 71 77 88 77 62z m-3060 -31 c0 -8 -17 -40 -38
-73 -21 -32 -41 -64 -45 -71 -5 -7 33 -35 108 -78 109 -63 134 -85 100 -85
-15 0 -93 41 -174 92 -25 15 -50 28 -55 28 -6 0 -31 -32 -56 -70 -25 -38 -51
-70 -57 -70 -22 0 -15 17 35 92 26 39 43 73 37 75 -28 10 -149 90 -153 101 -7
22 20 13 100 -34 90 -53 79 -57 140 48 31 54 58 75 58 45z m4755 -50 c97 -55
116 -179 39 -251 -40 -36 -70 -40 -147 -16 -92 29 -147 80 -147 138 0 32 7 49
32 78 63 72 151 92 223 51z m-6160 -974 c26 -43 49 -80 51 -82 2 -2 36 15 76
38 39 23 79 39 87 36 20 -8 3 -24 -74 -65 -33 -17 -63 -34 -66 -36 -4 -2 22
-52 57 -111 35 -59 64 -114 64 -121 0 -32 -29 1 -87 98 -33 58 -66 106 -71
108 -6 2 -42 -13 -81 -32 -77 -39 -91 -43 -91 -23 0 7 36 30 79 52 l80 40 -49
80 c-45 74 -52 95 -30 95 5 0 30 -35 55 -77z m1993 -50 c55 -43 85 -110 76
-168 -12 -80 -75 -135 -156 -135 -46 0 -100 27 -116 57 -35 67 -19 208 30 256
26 27 34 29 79 25 35 -4 61 -14 87 -35z m4930 -110 c103 -502 106 -513 123
-513 10 0 145 18 301 40 156 22 284 40 286 40 1 0 2 -6 2 -14 0 -19 -29 -24
-497 -87 -80 -10 -93 -15 -93 -30 0 -33 143 -625 153 -635 2 -3 136 10 296 27
160 18 294 29 298 26 18 -18 -32 -28 -297 -57 -156 -17 -286 -33 -288 -35 -2
-2 28 -124 67 -271 46 -169 68 -271 62 -277 -15 -15 -24 11 -96 286 -67 252
-69 257 -94 257 -37 -1 -722 -77 -725 -82 -2 -1 17 -126 42 -275 25 -150 42
-276 39 -280 -17 -16 -28 27 -71 281 -25 148 -47 270 -48 271 -2 2 -138 -12
-303 -31 -273 -30 -336 -32 -313 -9 3 3 124 19 269 35 364 40 348 38 343 58
-3 9 -24 153 -48 320 -23 166 -45 304 -48 307 -2 3 -114 -9 -249 -25 -134 -16
-261 -30 -281 -32 -37 -2 -57 6 -45 19 4 3 134 21 289 40 155 18 283 34 284
36 2 1 -3 50 -11 107 -16 120 -55 457 -55 471 0 11 30 12 30 2 2 -50 69 -565
74 -570 7 -7 666 73 674 82 3 3 -18 116 -47 252 -70 338 -66 313 -48 313 10 0
19 -16 25 -47z m-3038 -140 c0 -4 -37 -44 -81 -89 l-81 -82 76 -57 c42 -32 76
-61 76 -65 0 -19 -16 -18 -44 3 -17 13 -54 40 -82 60 l-50 36 -84 -95 c-52
-58 -87 -91 -93 -85 -13 13 10 44 125 167 l29 31 -90 68 c-50 37 -91 71 -91
76 0 21 33 5 116 -56 l89 -65 80 80 c71 71 105 95 105 73z m2220 -61 c0 -10
-21 -46 -46 -81 -36 -50 -43 -65 -33 -72 8 -5 58 -36 112 -70 53 -33 97 -66
97 -74 0 -8 -3 -15 -7 -15 -3 0 -58 32 -120 71 -63 39 -115 70 -117 68 -1 -2
-24 -34 -50 -71 -26 -38 -51 -68 -55 -68 -23 0 -16 19 30 84 57 81 62 68 -49
137 -35 22 -60 44 -57 49 10 16 17 13 91 -35 38 -24 74 -45 80 -45 12 0 94
112 94 129 0 6 7 11 15 11 8 0 15 -8 15 -18z m-3015 -37 c81 -21 120 -60 119
-116 -3 -90 -108 -178 -198 -165 -120 18 -186 144 -123 237 41 61 93 72 202
44z m5144 -495 c4 0 34 27 65 60 32 33 62 60 67 60 23 0 4 -32 -52 -87 l-60
-59 96 -93 c73 -69 95 -95 86 -104 -8 -8 -30 7 -83 58 -39 39 -80 80 -91 93
-10 12 -22 22 -27 22 -5 0 -36 -25 -68 -55 -56 -52 -82 -66 -82 -46 0 5 27 35
60 67 l61 58 -67 67 c-90 91 -76 112 17 24 38 -36 73 -65 78 -65z m-7208 -92
c7 -18 27 -66 45 -106 l33 -72 78 50 c43 27 84 50 91 50 29 0 7 -24 -68 -71
-44 -28 -80 -58 -80 -66 0 -9 23 -58 50 -109 53 -98 58 -114 38 -114 -7 0 -38
47 -68 105 -30 58 -56 105 -58 105 -3 0 -43 -25 -91 -55 -48 -30 -92 -55 -99
-55 -29 0 -6 24 76 76 48 31 90 60 94 63 4 4 -12 53 -37 110 -25 57 -45 107
-45 112 0 23 29 6 41 -23z m6589 -516 c140 -84 105 -292 -52 -309 -57 -7 -113
18 -134 60 -20 38 -21 162 -1 208 35 83 96 96 187 41z m-1478 -216 l-51 -86
101 -72 c93 -67 113 -88 91 -95 -4 -1 -52 29 -107 68 -77 56 -100 68 -107 58
-5 -8 -31 -51 -57 -96 -26 -46 -53 -83 -59 -83 -22 0 -15 18 43 117 l57 95
-34 27 c-111 86 -150 124 -140 134 7 7 24 -1 56 -26 25 -21 65 -53 89 -72 l44
-36 28 48 c62 107 76 125 86 115 7 -7 -6 -37 -40 -96z m-1597 27 c15 -38 31
-78 36 -90 l8 -23 68 26 c86 33 113 39 113 26 0 -17 -23 -30 -95 -53 -39 -12
-71 -23 -72 -24 -2 -1 17 -53 42 -115 47 -118 53 -144 33 -138 -7 3 -32 54
-56 114 -24 60 -47 113 -52 118 -5 4 -43 -3 -87 -18 -91 -30 -93 -31 -93 -11
0 9 29 23 84 41 l85 26 -19 49 c-11 26 -26 65 -35 85 -19 45 -19 54 -1 54 8 0
26 -29 41 -67z m-3551 16 c31 -24 62 -80 71 -130 13 -68 -52 -168 -121 -185
-99 -25 -204 61 -184 152 12 53 64 137 100 162 42 28 98 29 134 1z m-688 -699
c42 -102 30 -97 140 -54 71 28 74 28 74 10 0 -14 -70 -48 -125 -62 -16 -4 -33
-8 -36 -10 -4 -2 15 -59 42 -126 28 -68 46 -125 41 -130 -14 -14 -27 9 -72
127 -24 61 -44 112 -46 113 -1 2 -41 -9 -88 -24 -81 -26 -106 -28 -92 -5 3 5
42 21 86 36 44 15 80 28 80 29 0 1 -15 40 -34 87 -19 46 -32 87 -29 91 11 19
24 2 59 -82z m3084 -30 c7 -44 16 -83 21 -86 5 -3 47 4 95 16 102 24 94 23 94
5 0 -8 -12 -17 -27 -21 -65 -15 -148 -36 -154 -40 -6 -3 11 -108 27 -161 5
-17 2 -23 -9 -23 -16 0 -32 38 -42 105 -13 79 -2 75 -137 43 -113 -27 -164
-30 -142 -8 10 9 212 60 240 60 17 0 17 22 -2 148 -5 34 -4 42 8 42 12 0 19
-21 28 -80z m4770 18 c59 -31 82 -66 88 -130 5 -65 -23 -113 -81 -141 -37 -18
-39 -18 -106 2 -46 14 -82 33 -112 59 -38 34 -44 45 -44 79 0 51 36 100 96
130 56 29 103 29 159 1z m-6608 -311 c102 -77 138 -185 80 -240 -52 -50 -148
-62 -212 -26 -85 48 -114 149 -63 226 50 78 125 93 195 40z"/>
<path d="M8002 9369 c-31 -12 -52 -67 -52 -138 0 -81 12 -109 57 -127 144 -61
240 148 108 237 -47 32 -82 41 -113 28z"/>
<path d="M1923 8395 c-38 -26 -57 -147 -33 -209 30 -79 163 -76 206 5 36 71 4
156 -76 197 -52 26 -68 27 -97 7z"/>
<path d="M755 7737 c-45 -38 -56 -166 -19 -224 20 -32 76 -47 119 -33 56 18
85 62 85 125 0 46 -5 60 -30 89 -30 34 -85 66 -113 66 -9 0 -28 -10 -42 -23z"/>
<path d="M2130 6353 c-340 -430 -306 -384 -284 -400 10 -8 73 -46 139 -85 66
-39 185 -111 264 -160 78 -49 147 -88 151 -86 4 2 32 35 62 73 104 135 333
436 346 455 12 16 -7 32 -215 185 -125 93 -242 179 -260 191 -17 13 -35 24
-40 24 -4 -1 -78 -89 -163 -197z m268 -122 c49 -37 101 -110 109 -155 22 -137
-209 -186 -298 -63 -54 74 -34 180 43 227 48 29 97 26 146 -9z"/>
<path d="M2268 6214 c-36 -19 -58 -63 -58 -113 0 -31 7 -49 30 -75 57 -64 151
-71 212 -17 46 41 34 85 -41 162 -62 64 -90 72 -143 43z"/>
<path d="M5705 6318 c-170 -27 -310 -50 -311 -51 -1 -1 2 -24 6 -52 73 -423
102 -590 104 -592 2 -3 740 98 744 102 2 2 -13 58 -32 126 -29 104 -60 224
-127 482 -12 47 8 48 -384 -15z m132 -179 c64 -31 96 -78 100 -147 7 -103 -53
-172 -149 -172 -102 0 -143 54 -136 179 8 144 74 194 185 140z"/>
<path d="M5715 6106 c-47 -47 -47 -193 0 -233 32 -28 94 -31 135 -6 68 40 80
145 24 205 -59 61 -119 74 -159 34z"/>
<path d="M247 6639 c-29 -17 -47 -72 -47 -144 0 -60 3 -69 29 -96 67 -67 187
-18 198 82 4 31 0 56 -11 77 -33 64 -125 108 -169 81z"/>
<path d="M1644 6606 c-30 -30 -34 -40 -34 -86 0 -47 4 -56 39 -91 36 -36 42
-39 97 -39 147 0 172 91 56 205 -38 38 -51 45 -85 45 -31 0 -46 -7 -73 -34z"/>
<path d="M7660 6625 c-21 -22 -25 -38 -28 -101 -6 -118 20 -154 109 -154 80 0
139 96 108 177 -18 47 -76 93 -125 100 -33 4 -43 1 -64 -22z"/>
<path d="M5027 6012 c-38 -42 -49 -143 -23 -207 11 -26 24 -36 54 -46 50 -14
83 -7 123 29 36 33 50 102 29 152 -29 70 -144 116 -183 72z"/>
<path d="M1293 6004 c-120 -60 -66 -244 72 -244 42 0 94 20 114 44 35 42 -4
130 -83 188 -45 32 -59 34 -103 12z"/>
<path d="M6577 5588 c-25 -20 -37 -63 -37 -138 0 -88 23 -119 90 -127 116 -13
181 125 103 217 -46 55 -117 77 -156 48z"/>
<path d="M3714 3593 l-141 -4 -6 -371 c-4 -205 -3 -376 1 -380 4 -4 131 9 282
27 151 19 299 37 328 40 l52 6 0 277 c0 152 -3 307 -7 345 l-6 67 -181 -2
c-100 -1 -244 -4 -322 -5z m281 -229 c22 -12 48 -35 59 -53 16 -28 17 -38 7
-72 -14 -45 -61 -103 -102 -125 -68 -35 -169 -7 -212 58 -43 66 -31 153 27
201 31 26 165 20 221 -9z"/>
<path d="M3781 3336 c-15 -15 -25 -41 -28 -68 -14 -137 172 -188 255 -70 65
92 -3 162 -156 162 -39 0 -53 -5 -71 -24z"/>
<path d="M8461 4086 c-30 -32 -38 -94 -17 -135 49 -94 188 -93 246 1 55 90 -9
156 -151 158 -46 0 -59 -4 -78 -24z"/>
<path d="M6234 3951 c-73 -33 -104 -98 -70 -146 29 -42 161 -90 203 -74 56 21
80 106 48 169 -17 32 -80 70 -117 70 -13 0 -41 -9 -64 -19z"/>
<path d="M2072 2953 c-37 -15 -60 -150 -38 -221 16 -49 106 -67 163 -32 42 25
54 50 55 111 0 38 -6 57 -25 83 -39 51 -109 78 -155 59z"/>
<path d="M6855 2246 l-320 -42 3 -29 c13 -121 87 -614 93 -619 2 -2 171 16
374 38 352 39 370 42 367 61 -2 11 -32 139 -67 285 -35 146 -67 283 -72 305
-7 33 -13 40 -33 41 -14 1 -169 -17 -345 -40z m114 -182 c117 -59 144 -197 55
-281 -86 -81 -222 -41 -238 71 -15 97 17 194 74 223 35 18 49 16 109 -13z"/>
<path d="M6873 2050 c-36 -15 -56 -67 -57 -148 0 -66 2 -74 27 -100 23 -22 36
-27 77 -27 42 0 54 5 81 31 35 35 50 92 38 138 -18 66 -113 127 -166 106z"/>
<path d="M3161 2577 c-70 -41 -66 -164 7 -201 68 -35 122 -28 176 22 67 63 66
126 -2 161 -52 26 -149 36 -181 18z"/>
<path d="M7697 1488 c-25 -20 -37 -63 -37 -139 0 -61 3 -73 24 -94 76 -76 199
-17 200 96 1 33 -5 56 -20 76 -46 62 -126 91 -167 61z"/>
<path d="M1073 1288 c-39 -42 -73 -109 -73 -145 0 -53 57 -103 117 -103 69 0
143 92 127 157 -28 116 -107 158 -171 91z"/>
<path d="M8234 594 c-78 -38 -110 -109 -69 -154 28 -31 119 -70 165 -70 110 0
136 160 35 217 -47 26 -88 29 -131 7z"/>
<path d="M1633 290 c-114 -69 -55 -240 82 -240 74 0 125 38 125 93 0 54 -105
167 -156 167 -10 0 -33 -9 -51 -20z"/>
<path d="M2665 9755 c39 -24 75 -44 80 -44 6 0 25 20 43 44 l33 45 -113 0
-113 0 70 -45z"/>
<path d="M5330 9774 c-23 -58 -5 -110 55 -163 31 -27 44 -32 78 -29 39 3 44 7
65 48 16 32 22 62 22 107 l0 63 -105 0 c-104 0 -106 0 -115 -26z"/>
<path d="M5743 9778 c3 -13 18 -90 33 -173 14 -82 27 -151 28 -152 4 -5 749
27 754 31 4 5 -16 256 -24 294 l-4 22 -396 0 -396 0 5 -22z"/>
<path d="M6146 9434 c-181 -8 -331 -15 -333 -18 -2 -2 6 -57 18 -122 11 -66
36 -213 54 -327 18 -114 34 -209 36 -210 5 -4 683 34 687 38 3 3 -23 404 -36
568 l-7 82 -45 1 c-25 1 -193 -5 -374 -12z m185 -177 c56 -38 70 -119 37 -227
-32 -106 -137 -123 -222 -35 -42 43 -60 94 -53 148 15 111 147 175 238 114z"/>
<path d="M6183 9230 c-37 -22 -50 -43 -59 -97 -11 -74 62 -163 135 -163 43 0
62 17 80 69 15 45 14 152 -2 172 -32 42 -102 51 -154 19z"/>
<path d="M185 8520 c-22 -4 -73 -13 -112 -20 l-73 -12 0 -93 0 -92 41 -27 c68
-45 96 -136 65 -209 -14 -36 -69 -87 -92 -87 -11 0 -14 -17 -14 -80 0 -44 3
-80 7 -80 13 0 377 50 400 55 l21 5 -26 92 c-14 51 -53 196 -86 323 -44 165
-65 230 -76 231 -8 1 -33 -2 -55 -6z"/>
<path d="M9769 8486 c-2 -2 -91 -17 -198 -32 -106 -15 -195 -33 -197 -38 -5
-14 100 -624 109 -633 7 -6 237 20 295 34 20 5 22 11 22 78 l0 72 -46 6 c-51
5 -92 31 -111 68 -19 37 -16 167 5 209 23 46 76 73 120 61 l32 -10 0 95 c0 72
-3 94 -13 94 -8 0 -16 -2 -18 -4z"/>
<path d="M9683 8253 c-22 -33 -31 -170 -14 -202 15 -28 66 -53 99 -49 l27 3 3
129 c3 143 2 146 -60 146 -30 0 -41 -6 -55 -27z"/>
<path d="M0 8135 c0 -69 3 -125 6 -125 20 0 64 46 74 76 17 52 6 102 -32 141
-17 18 -36 33 -40 33 -4 0 -8 -56 -8 -125z"/>
<path d="M0 5414 l0 -49 20 25 c24 31 24 33 0 55 -20 18 -20 17 -20 -31z"/>
<path d="M9116 5119 c-120 -5 -220 -10 -222 -12 -2 -2 -7 -171 -10 -375 l-7
-372 24 0 c13 0 128 13 254 29 127 16 267 33 313 36 l82 8 0 236 c0 130 -3
287 -7 349 l-6 112 -101 -2 c-56 0 -199 -5 -320 -9z m145 -210 c34 -7 64 -22
88 -44 30 -28 36 -39 35 -74 -3 -86 -88 -165 -179 -165 -99 0 -160 59 -160
156 0 116 71 158 216 127z"/>
<path d="M9123 4880 c-26 -11 -53 -59 -53 -95 0 -40 29 -94 59 -109 67 -35
121 -28 175 22 60 56 66 120 14 154 -49 31 -150 46 -195 28z"/>
<path d="M9574 5078 c3 -29 6 -185 6 -347 l0 -293 55 6 c30 3 80 9 110 12 l55
6 0 334 0 334 -116 0 -117 0 7 -52z"/>
<path d="M2 2298 l3 -352 83 -33 c58 -22 84 -28 87 -20 3 7 47 134 99 282 52
149 99 282 105 297 5 15 6 30 2 33 -5 3 -69 27 -143 54 -73 27 -157 59 -186
70 l-52 21 2 -352z"/>
<path d="M409 2464 c-18 -48 -43 -118 -128 -362 -71 -207 -79 -234 -63 -239 9
-4 167 -64 351 -135 184 -70 335 -127 336 -126 9 11 161 644 156 650 -3 4
-141 56 -306 116 -165 61 -308 113 -317 117 -13 5 -20 0 -29 -21z m291 -256
c44 -30 80 -99 80 -155 0 -51 -16 -87 -59 -127 -26 -25 -42 -30 -91 -34 -51
-4 -65 -1 -94 19 -77 52 -84 119 -23 218 39 63 87 101 127 101 15 0 42 -10 60
-22z"/>
<path d="M586 2170 c-39 -34 -86 -121 -86 -158 0 -14 14 -38 34 -58 29 -29 41
-34 83 -34 55 0 82 15 112 64 35 57 21 136 -33 191 -33 33 -68 32 -110 -5z"/>
<path d="M0 1633 l1 -278 79 245 c44 134 76 248 72 251 -9 9 -132 59 -144 59
-4 0 -8 -125 -8 -277z"/>
<path d="M2474 638 c-87 -110 -191 -242 -231 -292 -40 -49 -71 -91 -70 -92 1
-1 96 -59 211 -128 l210 -126 115 0 116 1 56 77 c31 42 108 145 172 228 l116
151 -72 53 c-207 156 -448 330 -455 330 -5 0 -80 -91 -168 -202z m244 -102
c41 -22 109 -96 127 -140 9 -22 14 -50 10 -66 -13 -61 -110 -111 -187 -96 -87
16 -156 106 -143 185 16 96 117 157 193 117z"/>
<path d="M2601 494 c-34 -28 -53 -82 -44 -125 9 -46 66 -97 115 -104 54 -8
116 13 142 48 18 25 18 28 2 71 -10 26 -37 63 -66 90 -59 56 -100 61 -149 20z"/>
<path d="M2094 157 c-32 -40 -73 -91 -92 -114 l-34 -43 111 0 c108 0 112 1
106 20 -5 15 -2 20 10 20 9 0 19 -9 22 -20 5 -19 14 -20 154 -20 82 0 149 2
149 4 0 3 -73 48 -162 102 -90 53 -173 103 -185 110 -20 13 -25 9 -79 -59z"/>
<path d="M5384 41 c-59 -36 -52 -41 60 -41 87 0 104 2 100 14 -8 20 -66 46
-101 46 -15 0 -42 -9 -59 -19z"/>
</g>
</svg>
